name Walk7.mot
datacolumns 19
datarows 22
range 1.84400000 1.86500000
endheader

                time	   L_ground_force_vx	   L_ground_force_vy	   L_ground_force_vz	   L_ground_force_px	   L_ground_force_py	   L_ground_force_pz	   R_ground_force_vx	   R_ground_force_vy	   R_ground_force_vz	   R_ground_force_px	   R_ground_force_py	   R_ground_force_pz	   L_ground_torque_x	   L_ground_torque_y	   L_ground_torque_z	   R_ground_torque_x	   R_ground_torque_y	   R_ground_torque_z	
          1.84400000	         -0.00000001	         -0.00000002	          0.00000000	          0.00000000	          0.00000000	          0.00000000	         -1.23742544	         -5.77402459	         -0.24789707	         -0.00001173	          0.00000000	         -0.00001250	          0.00000000	         -0.00000000	          0.00000000	          0.00000000	          0.27886859	          0.00000000	
          1.84500000	         -0.00000001	         -0.00000002	          0.00000000	          0.00000000	          0.00000000	          0.00000000	         -1.22329954	         -5.70636761	         -0.25603666	         -0.00234506	          0.00000000	         -0.00033360	          0.00000000	         -0.00000000	          0.00000000	          0.00000000	          0.27662499	          0.00000000	
          1.84600000	         -0.00000001	         -0.00000002	          0.00000000	          0.00000000	          0.00000000	          0.00000000	         -1.20575213	         -5.62290007	         -0.26251667	         -0.00447114	          0.00000000	         -0.00062614	          0.00000000	         -0.00000000	          0.00000000	          0.00000000	          0.27352685	          0.00000000	
          1.84700000	         -0.00000001	         -0.00000002	          0.00000000	          0.00000000	          0.00000000	          0.00000000	         -1.18514041	         -5.52528165	         -0.26745374	         -0.00639956	          0.00000000	         -0.00089144	          0.00000000	         -0.00000000	          0.00000000	          0.00000000	          0.26965854	          0.00000000	
          1.84800000	         -0.00000001	         -0.00000002	          0.00000000	          0.00000000	          0.00000000	          0.00000000	         -1.16180282	         -5.41508441	         -0.27096040	         -0.00813983	          0.00000000	         -0.00113081	          0.00000000	         -0.00000000	          0.00000000	          0.00000000	          0.26510014	          0.00000000	
          1.84900000	         -0.00000001	         -0.00000001	          0.00000000	          0.00000000	          0.00000000	          0.00000000	         -1.13605931	         -5.29379425	         -0.27314501	         -0.00970138	          0.00000000	         -0.00134556	          0.00000000	         -0.00000000	          0.00000000	          0.00000000	          0.25992757	          0.00000000	
          1.85000000	         -0.00000001	         -0.00000001	          0.00000000	          0.00000000	          0.00000000	          0.00000000	         -1.10821171	         -5.16281267	         -0.27411172	         -0.01109350	          0.00000000	         -0.00153697	          0.00000000	         -0.00000000	          0.00000000	          0.00000000	          0.25421259	          0.00000000	
          1.85100000	         -0.00000001	         -0.00000001	          0.00000000	          0.00000000	          0.00000000	          0.00000000	         -1.07854415	         -5.02345862	         -0.27396043	         -0.01232533	          0.00000000	         -0.00170629	          0.00000000	         -0.00000000	          0.00000000	          0.00000000	          0.24802290	          0.00000000	
          1.85200000	         -0.00000000	         -0.00000001	          0.00000000	          0.00000000	          0.00000000	          0.00000000	         -1.04732349	         -4.87697055	         -0.27278678	         -0.01340586	          0.00000000	         -0.00185477	          0.00000000	         -0.00000000	          0.00000000	          0.00000000	          0.24142227	          0.00000000	
          1.85300000	         -0.00000000	         -0.00000001	          0.00000000	          0.00000000	          0.00000000	          0.00000000	         -1.01479975	         -4.72450857	         -0.27068211	         -0.01434386	          0.00000000	         -0.00198362	          0.00000000	         -0.00000000	          0.00000000	          0.00000000	          0.23447058	          0.00000000	
          1.85400000	         -0.00000000	         -0.00000001	          0.00000000	          0.00000000	          0.00000000	          0.00000000	         -0.98120662	         -4.56715672	         -0.26773355	         -0.01514790	          0.00000000	         -0.00209402	          0.00000000	         -0.00000000	          0.00000000	          0.00000000	          0.22722393	          0.00000000	
          1.85500000	         -0.00000000	         -0.00000001	          0.00000000	          0.00000000	          0.00000000	          0.00000000	         -0.94676196	         -4.40592536	         -0.26402398	         -0.01582634	          0.00000000	         -0.00218711	          0.00000000	         -0.00000000	          0.00000000	          0.00000000	          0.21973480	          0.00000000	
          1.85600000	         -0.00000000	         -0.00000001	          0.00000000	          0.00000000	          0.00000000	          0.00000000	         -0.91166834	         -4.24175360	         -0.25963214	         -0.01638729	          0.00000000	         -0.00226403	          0.00000000	         -0.00000000	          0.00000000	          0.00000000	          0.21205210	          0.00000000	
          1.85700000	         -0.00000000	         -0.00000001	          0.00000000	          0.00000000	          0.00000000	          0.00000000	         -0.87611354	         -4.07551180	         -0.25463261	         -0.01683863	          0.00000000	         -0.00232585	          0.00000000	         -0.00000000	          0.00000000	          0.00000000	          0.20422132	          0.00000000	
          1.85800000	         -0.00000000	         -0.00000001	          0.00000000	          0.00000000	          0.00000000	          0.00000000	         -0.84027113	         -3.90800416	         -0.24909597	         -0.01718796	          0.00000000	         -0.00237363	          0.00000000	         -0.00000000	          0.00000000	          0.00000000	          0.19628464	          0.00000000	
          1.85900000	         -0.00000000	         -0.00000001	          0.00000000	          0.00000000	          0.00000000	          0.00000000	         -0.80430101	         -3.73997128	         -0.24308880	         -0.01744264	          0.00000000	         -0.00240837	          0.00000000	         -0.00000000	          0.00000000	          0.00000000	          0.18828106	          0.00000000	
          1.86000000	         -0.00000000	         -0.00000001	          0.00000000	          0.00000000	          0.00000000	          0.00000000	         -0.76834994	         -3.57209277	         -0.23667381	         -0.01760975	          0.00000000	         -0.00243106	          0.00000000	         -0.00000000	          0.00000000	          0.00000000	          0.18024650	          0.00000000	
          1.86100000	         -0.00000000	         -0.00000000	          0.00000000	          0.00000000	          0.00000000	          0.00000000	         -0.73255217	         -3.40498989	         -0.22990991	         -0.01769611	          0.00000000	         -0.00244264	          0.00000000	         -0.00000000	          0.00000000	          0.00000000	          0.17221397	          0.00000000	
          1.86200000	         -0.00000000	         -0.00000000	          0.00000000	          0.00000000	          0.00000000	          0.00000000	         -0.69702993	         -3.23922812	         -0.22285234	         -0.01770826	          0.00000000	         -0.00244400	          0.00000000	         -0.00000000	          0.00000000	          0.00000000	          0.16421363	          0.00000000	
          1.86300000	         -0.00000000	         -0.00000000	          0.00000000	          0.00000000	          0.00000000	          0.00000000	         -0.66189403	         -3.07531982	         -0.21555272	         -0.01765246	          0.00000000	         -0.00243601	          0.00000000	         -0.00000000	          0.00000000	          0.00000000	          0.15627300	          0.00000000	
          1.86400000	         -0.00000000	         -0.00000000	          0.00000000	          0.00000000	          0.00000000	          0.00000000	         -0.62724438	         -2.91372677	         -0.20805922	         -0.01753470	          0.00000000	         -0.00241949	          0.00000000	         -0.00000000	          0.00000000	          0.00000000	          0.14841699	          0.00000000	
          1.86500000	         -0.00000000	         -0.00000000	          0.00000000	          0.00000000	          0.00000000	          0.00000000	         -0.59317058	         -2.75486274	         -0.20041664	         -0.01736070	          0.00000000	         -0.00239524	          0.00000000	         -0.00000000	          0.00000000	          0.00000000	          0.14066810	          0.00000000	
